<svg width="34" height="34" viewBox="0 0 34 34" fill="none" xmlns="http://www.w3.org/2000/svg">
<path d="M29.9133 17.006C29.8396 11.6324 26.5499 6.82058 21.5156 4.90011C16.4415 2.96636 10.4583 4.58202 7.02709 8.77425C3.61248 12.9492 3.09517 18.9643 5.87627 23.6194C8.65205 28.2645 14.0934 30.6584 19.3933 29.7042C25.4362 28.6171 29.7619 23.1884 29.9087 17.1441C29.9126 17.0982 29.9142 17.0521 29.9133 17.006ZM7.90564 11.5799C10.1442 7.83593 14.6246 5.77734 18.9258 6.60277C23.5344 7.4853 26.9231 11.2824 27.4809 15.8332H21.1444C20.5959 14.0164 19.0194 12.6457 16.986 12.6457C15.0171 12.6457 13.3237 14.017 12.7951 15.8332H6.49052C6.65033 14.3301 7.13305 12.8792 7.90564 11.5799ZM19.0008 17.0066C18.868 19.5799 14.9719 19.623 14.9719 17.0066C14.9719 14.3902 18.8706 14.4321 19.0008 17.0066ZM20.5945 26.9536C16.3924 28.4604 11.6211 27.1429 8.78552 23.6951C7.50111 22.1199 6.70339 20.2046 6.48986 18.1834H12.7898C13.3151 20.0022 15.0277 21.3709 16.986 21.3709C19.0227 21.3709 20.5959 19.9976 21.1444 18.1834H27.4829C27.0014 22.1133 24.4069 25.5876 20.5952 26.9536H20.5945Z" fill="white"/>
</svg>
